# xmcd
#
# Track frame offsets:
#       150
#       11245
#       22400
#       35082
#       45980
#       56017
#       68097
#       79110
#       90842
#       102690
#       113475
#       123577
#       135542
#       147255
#       160120
#       172185
#       182147
#       192822
#       204125
#       216815
#       229797
#       239757
#       249380
#       261277
#
# Disc length: 3649 seconds
#
# Revision: 0
# Processed by: cddbd v1.4PL0 Copyright (c) Steve Scherf et al.
# Submitted via: WhereIsIt 3.26
#
DISCID=580e3f18
DTITLE=Jean Shepard - songs of a love affair/heartaches and tears
DYEAR=1900
DGENRE=
TTITLE0=a passing love affair
TTITLE1=shadows on the wall
TTITLE2=girls in disgrace
TTITLE3=over and over
TTITLE4=hello old broken heart
TTITLE5=the mysteries of life
TTITLE6=tell me what I want to hear
TTITLE7=I'll thank you all my life
TTITLE8=sad singin' and slow ridin'
TTITLE9=did I turn down a better deal
TTITLE10=I married for love
TTITLE11=It's hard to tell the married from the free
TTITLE12=how long does it hurt (when a heart breaks)
TTITLE13=leave me alone
TTITLE14=go on with your dancing
TTITLE15=I don't remember
TTITLE16=are you certain
TTITLE17=would you be satisfied
TTITLE18=so wrong, so fast
TTITLE19=second best
TTITLE20=I lost you after all
TTITLE21=I'd like to know (where people go)
TTITLE22=If you were losing him to me
TTITLE23=jealous heart
EXTD=
EXTT0=
EXTT1=
EXTT2=
EXTT3=
EXTT4=
EXTT5=
EXTT6=
EXTT7=
EXTT8=
EXTT9=
EXTT10=
EXTT11=
EXTT12=
EXTT13=
EXTT14=
EXTT15=
EXTT16=
EXTT17=
EXTT18=
EXTT19=
EXTT20=
EXTT21=
EXTT22=
EXTT23=
PLAYORDER=
